<svg version="1.1" id="Layer_1" xmlns="http://www.w3.org/2000/svg" xmlns:xlink="http://www.w3.org/1999/xlink" x="0px" y="0px"
	 width="100%" viewBox="0 0 1024 1024" enable-background="new 0 0 1024 1024" xml:space="preserve">
<path fill="#060708" opacity="1.000000" stroke="none" 
	d="
M567.000000,1025.000000 
	C378.000000,1025.000000 189.500000,1025.000000 1.000000,1025.000000 
	C1.000000,683.666687 1.000000,342.333344 1.000000,1.000000 
	C342.333344,1.000000 683.666687,1.000000 1025.000000,1.000000 
	C1025.000000,342.333344 1025.000000,683.666687 1025.000000,1025.000000 
	C872.500000,1025.000000 720.000000,1025.000000 567.000000,1025.000000 
M802.017517,492.568237 
	C802.351501,492.741577 802.685425,492.914886 803.033752,492.975159 
	C803.033752,492.975159 802.920715,492.960632 802.911804,493.608551 
	C803.259644,494.123444 803.607544,494.638367 803.992065,495.777039 
	C804.344116,496.523071 804.696167,497.269104 805.044983,498.857544 
	C805.334351,501.147583 805.863892,503.436523 805.874146,505.727814 
	C805.944153,521.354370 805.904907,536.981506 805.900940,552.608398 
	C805.900513,554.361023 805.900879,556.113647 805.900879,558.136230 
	C812.743652,558.136230 818.879150,558.212830 825.010376,558.084900 
	C826.640991,558.050903 828.258484,557.389282 830.023926,556.085999 
	C829.977295,542.713501 829.930664,529.341064 829.977478,515.328857 
	C829.946472,514.900085 829.915466,514.471375 830.031006,513.167297 
	C829.983093,511.101105 829.935242,509.034912 829.984924,506.126373 
	C829.951843,504.432159 829.918762,502.737915 830.030396,500.205658 
	C829.977417,498.793152 829.924377,497.380646 829.943542,495.507141 
	C829.943542,495.507141 829.845032,495.051056 829.963623,494.243347 
	C828.331055,483.257263 824.452332,473.757874 813.381775,468.940704 
	C805.487854,465.505768 797.273926,465.026733 788.974365,466.641266 
	C780.718506,468.247345 774.426758,473.356384 768.813110,479.397156 
	C755.047913,459.645630 727.638672,463.194977 715.125977,479.099396 
	C715.125977,475.546661 715.125977,471.993927 715.125977,468.342346 
	C707.019714,468.342346 699.775452,468.342346 692.325806,468.342346 
	C692.325806,498.299316 692.325806,528.001404 692.325806,558.118408 
	C698.396667,558.118408 704.191589,558.209656 709.980774,558.067871 
	C711.953735,558.019653 713.912415,557.385498 716.017578,556.089111 
	C715.970215,549.718872 715.922852,543.348572 715.972900,536.242432 
	C715.939758,535.502319 715.906616,534.762268 716.021057,533.099670 
	C715.973572,528.722717 715.926086,524.345825 715.973328,519.328979 
	C715.942200,518.900024 715.911072,518.471008 716.026733,517.117004 
	C715.992188,512.736328 715.957642,508.355682 716.058411,503.251282 
	C715.987610,502.521332 715.916809,501.791351 715.992920,500.598694 
	C715.992920,500.598694 716.034546,500.114960 716.677002,499.694275 
	C716.819824,498.956879 716.962585,498.219513 717.753052,497.459290 
	C724.753906,484.725372 740.524597,484.501282 748.142334,497.657776 
	C748.431335,498.436188 748.720276,499.214600 748.955017,500.929871 
	C749.013306,518.965149 749.071533,537.000427 749.042114,555.911255 
	C749.498413,556.628113 749.943787,557.961365 750.412659,557.969727 
	C757.821228,558.100891 765.232788,558.061890 772.796753,558.061890 
	C772.796753,538.315918 772.796753,519.174561 773.085999,499.364624 
	C775.147644,492.376953 780.230347,489.017822 787.081726,488.095215 
	C789.813477,487.727356 792.635437,488.029480 795.844543,488.650330 
	C796.578491,488.788879 797.312439,488.927399 797.887756,488.955109 
	C797.887756,488.955109 797.776733,489.113556 798.142822,489.641449 
	C799.068481,490.176178 799.994141,490.710907 801.054382,491.110657 
	C801.054382,491.110657 800.919556,490.975891 801.030701,491.554535 
	C801.361267,491.730682 801.691772,491.906799 802.022400,491.977661 
	C802.022400,491.977661 801.917114,491.977325 802.017517,492.568237 
M212.604111,596.051270 
	C213.139999,595.720581 213.675888,595.389954 214.902115,594.978088 
	C223.391525,589.228394 232.349060,584.054016 240.271484,577.607483 
	C256.061981,564.758606 266.715668,548.513977 270.040344,527.037720 
	C270.080811,496.523621 270.133850,466.009552 270.115845,435.495483 
	C270.115112,434.279327 269.439636,433.063599 268.968323,431.934570 
	C268.968323,431.934570 269.055084,432.044891 268.927765,431.369080 
	C268.610321,431.055145 268.292877,430.741211 267.731384,429.828949 
	C263.272797,428.404602 258.901184,426.548676 254.340805,425.629303 
	C232.534897,421.233215 212.441177,413.246521 195.127731,398.887024 
	C189.089813,393.879242 183.259933,394.295197 177.130325,399.362000 
	C174.446075,401.580811 171.734573,403.794342 168.856720,405.746826 
	C150.155792,418.434662 129.121384,424.459991 106.316849,427.261780 
	C105.047188,428.048004 103.777519,428.834259 102.607368,429.572693 
	C102.607368,429.572693 102.557510,429.474182 101.976501,429.895142 
	C101.144386,432.477997 99.604271,435.056793 99.589294,437.644379 
	C99.433548,464.561066 99.373291,491.480804 99.662399,518.395630 
	C99.725304,524.252319 101.282799,530.092957 102.182617,536.689087 
	C107.175194,553.417419 117.018608,566.782776 130.241104,577.983643 
	C144.311066,589.902344 160.510925,598.114563 177.673889,606.068115 
	C179.107147,606.664795 180.540390,607.261475 182.773849,608.029236 
	C183.858673,607.990723 184.943512,607.952209 186.726868,608.005249 
	C187.814621,607.672485 188.902390,607.339722 190.659698,607.048828 
	C191.447296,606.660461 192.234879,606.272095 193.655304,605.777710 
	C194.545746,605.213074 195.436172,604.648376 196.704895,604.101196 
	C196.704895,604.101196 197.021271,603.893127 197.703354,603.761902 
	C199.888016,602.533630 202.072662,601.305420 204.667236,600.075745 
	C204.667236,600.075745 205.025879,599.877197 205.706131,599.765015 
	C207.865356,598.543030 210.024597,597.320984 212.086990,595.966187 
	C212.086990,595.966187 211.954086,596.062805 212.604111,596.051270 
M348.042358,535.052246 
	C348.042358,500.194641 348.042358,465.337036 348.042358,430.210449 
	C339.954742,430.210449 332.649902,430.159027 325.348267,430.288025 
	C324.596313,430.301300 323.863373,431.391357 322.976196,432.911499 
	C323.024170,454.284668 323.072174,475.657867 323.044006,497.495972 
	C323.044006,497.495972 323.124084,497.960236 322.975220,498.892242 
	C323.020996,518.267517 323.066772,537.642761 323.436340,557.824219 
	C347.135803,557.824219 370.835266,557.824219 394.689606,557.824219 
	C394.994690,553.315613 395.101532,549.031433 395.612335,544.796021 
	C396.462067,537.750000 395.967255,537.070679 388.914764,537.029419 
	C375.297272,536.949646 361.679871,536.855591 348.085083,536.361206 
	C348.085083,536.361206 347.936737,535.982300 348.042358,535.052246 
M508.375092,488.223511 
	C500.656311,502.795990 500.900970,517.822571 505.931152,533.835632 
	C508.322113,537.790649 510.280701,542.099365 513.177612,545.640442 
	C526.940979,562.464600 553.827209,563.934448 569.998169,556.620422 
	C581.952393,551.213562 589.459412,541.468567 590.332947,526.986328 
	C582.645447,526.986328 575.356140,526.879211 568.077087,527.105042 
	C567.017822,527.137939 565.565674,528.557251 565.043457,529.682312 
	C559.701233,541.191833 543.501648,542.621765 534.604309,533.337646 
	C526.494629,524.875366 526.149597,514.653381 528.753784,504.087555 
	C530.900879,495.376038 536.201477,489.030701 545.271240,487.337921 
	C554.252380,485.661713 561.077820,489.566986 565.699646,497.423004 
	C566.115479,498.129730 567.126160,498.918884 567.872742,498.931244 
	C574.823486,499.046173 581.776917,498.999298 589.061401,498.999298 
	C588.792053,489.897522 585.638489,482.706207 579.526184,476.779083 
	C562.234436,460.011261 529.901428,462.578949 512.484802,482.437805 
	C511.649017,483.622406 510.813263,484.806976 509.512634,486.294556 
	C509.322754,486.800812 509.132874,487.307068 508.375092,488.223511 
M846.909180,495.022583 
	C852.945984,494.982758 858.982788,494.942932 865.722717,494.920929 
	C868.196777,491.961212 870.670837,489.001495 873.783081,486.041321 
	C874.201660,485.979248 874.620178,485.917206 875.552734,485.839355 
	C875.759766,485.571960 875.966797,485.304565 876.784363,485.082184 
	C877.189026,485.056671 877.593750,485.031158 878.499084,485.129730 
	C878.661316,485.072906 878.823547,485.016052 879.668640,485.039978 
	C880.122131,484.989563 880.575684,484.939117 881.494385,484.974274 
	C881.494385,484.974274 881.958313,484.882355 882.720642,485.019257 
	C883.492798,484.985870 884.264954,484.952454 885.708130,485.117279 
	C887.471985,485.745148 889.235840,486.373047 891.305847,487.441315 
	C891.783020,487.654541 892.260132,487.867798 893.069031,488.670715 
	C893.708313,489.312378 894.347656,489.954041 895.048523,491.294189 
	C895.700989,495.851654 896.353516,500.409119 896.075562,504.871094 
	C891.062256,504.941437 886.048889,505.011810 880.140564,504.916168 
	C877.415955,504.986908 874.691406,505.057617 871.509216,505.066711 
	C871.509216,505.066711 871.072327,505.216003 870.240784,505.189880 
	C866.823303,505.800690 863.323120,506.122742 860.003052,507.073547 
	C847.341675,510.699463 840.532959,519.537476 840.097473,532.539124 
	C839.682190,544.938477 845.437805,554.662231 856.376038,558.495605 
	C868.620178,562.786621 886.028381,561.215393 895.340210,548.691895 
	C896.260315,547.454285 897.431213,546.403259 899.124817,544.576416 
	C899.124817,549.056335 899.124817,552.546997 899.060181,556.908630 
	C899.500244,557.294800 899.937073,558.013123 900.380920,558.017517 
	C907.470032,558.087952 914.559998,558.067139 921.897949,558.067139 
	C921.897949,538.434204 921.897949,519.235107 921.971313,499.160492 
	C921.852417,486.017731 916.445496,475.903107 904.329529,470.305908 
	C891.274353,464.274841 877.574463,463.840576 863.973389,468.130371 
	C854.644104,471.072845 847.774231,477.111572 844.942444,487.776978 
	C845.370667,490.132477 842.198608,493.013672 846.909180,495.022583 
M650.195862,488.785828 
	C651.497314,490.866272 652.798767,492.946716 654.124573,495.817383 
	C654.437134,497.534363 654.749695,499.251343 654.963257,501.656891 
	C655.015076,502.115479 655.066895,502.574097 654.821838,503.932037 
	C648.560791,504.319427 642.299805,504.706787 635.164490,504.940735 
	C633.099731,505.011658 631.035034,505.082581 628.139099,505.079529 
	C623.087524,506.375031 618.035950,507.670502 612.317871,508.974365 
	C611.201599,509.605133 610.085388,510.235870 608.482849,511.003601 
	C608.090576,511.283386 607.698303,511.563171 606.619690,512.059265 
	C594.155762,520.324219 592.442932,545.362671 608.068481,555.593323 
	C617.187622,561.563965 627.298828,561.286560 637.369446,559.248352 
	C645.716675,557.558899 651.426697,551.717041 657.173828,543.727600 
	C657.173828,549.185669 657.173828,553.107117 657.467712,557.841431 
	C664.667603,557.841431 671.867554,557.841431 678.896118,557.841431 
	C678.896118,550.595032 678.896118,543.817078 679.034363,536.180115 
	C678.984619,534.443970 678.934875,532.707764 678.963745,530.504272 
	C678.963745,530.504272 678.884033,530.037231 679.029785,529.108459 
	C678.982178,524.062317 678.934570,519.016235 678.981567,513.329468 
	C678.949402,512.900146 678.917236,512.470764 679.029785,511.123444 
	C678.981750,507.405426 678.933716,503.687378 678.985046,499.136658 
	C678.661255,496.756378 678.337524,494.376129 678.100830,491.315582 
	C678.016357,490.868561 677.931946,490.421509 677.835754,489.296326 
	C677.486084,488.223969 677.136353,487.151642 676.662292,485.402313 
	C673.713623,481.645477 671.467468,476.840637 667.695435,474.311920 
	C650.731812,462.939667 632.568176,462.494659 614.312927,470.923248 
	C609.320923,473.228119 604.578674,476.882080 603.075500,483.508514 
	C602.448181,485.661041 601.820862,487.813568 600.988708,490.761688 
	C601.036194,491.851685 601.083679,492.941711 601.124329,494.520630 
	C601.124329,494.520630 601.469238,494.867218 601.469238,494.867218 
	C601.469238,494.867218 601.958191,494.864502 602.889648,495.015686 
	C609.267273,494.970520 615.644836,494.925354 622.685974,494.795654 
	C623.518188,493.170502 624.350403,491.545349 625.776611,489.610809 
	C632.589905,483.707153 640.175720,484.114441 648.491089,487.258575 
	C648.976074,487.562195 649.461060,487.865845 650.195862,488.785828 
M465.586792,468.820038 
	C456.607941,465.579895 447.384338,465.034149 438.128296,467.008484 
	C420.559784,470.755890 407.494812,480.571442 402.487427,498.090179 
	C397.249634,516.415161 399.975006,533.842224 414.451630,547.646973 
	C427.363617,559.959778 443.175232,562.674866 460.204224,559.417847 
	C472.671051,557.033386 482.778290,550.742737 489.417114,539.686523 
	C501.387360,519.751526 499.893311,481.562622 465.586792,468.820038 
z"/>
<path fill="#DA241D" opacity="1.000000" stroke="none" 
	d="
M197.021271,603.893127 
	C197.021271,603.893127 196.704895,604.101196 196.180481,604.129150 
	C194.778183,604.732666 193.900314,605.308167 193.022461,605.883789 
	C192.234879,606.272095 191.447296,606.660461 190.081909,606.910522 
	C188.345535,607.152710 187.186935,607.533203 186.028336,607.913696 
	C184.943512,607.952209 183.858673,607.990723 182.241547,607.666016 
	C180.159042,606.801453 178.608856,606.300110 177.058670,605.798767 
	C160.510925,598.114563 144.311066,589.902344 130.241104,577.983643 
	C117.018608,566.782776 107.175194,553.417419 102.328400,535.984985 
	C101.980026,529.696655 101.106804,524.115723 101.059578,518.527832 
	C100.886719,498.075836 100.831123,477.619720 101.058731,457.168854 
	C101.161522,447.932892 102.034149,438.705475 102.557510,429.474182 
	C102.557510,429.474182 102.607368,429.572693 102.916107,429.598694 
	C104.472122,428.826660 105.719398,428.028656 106.966682,427.230652 
	C129.121384,424.459991 150.155792,418.434662 168.856720,405.746826 
	C171.734573,403.794342 174.446075,401.580811 177.130325,399.362000 
	C183.259933,394.295197 189.089813,393.879242 195.127731,398.887024 
	C212.441177,413.246521 232.534897,421.233215 254.340805,425.629303 
	C258.901184,426.548676 263.272797,428.404602 268.055298,430.382446 
	C268.604523,431.305603 268.829803,431.675232 269.055084,432.044891 
	C269.055084,432.044891 268.968323,431.934570 269.006622,432.371124 
	C269.032379,462.723328 269.006714,492.638977 269.040070,522.554565 
	C269.042053,524.347473 269.515503,526.139893 269.769562,527.932495 
	C266.715668,548.513977 256.061981,564.758606 240.271484,577.607483 
	C232.349060,584.054016 223.391525,589.228394 214.265289,595.127563 
	C213.070328,595.538940 212.512207,595.800842 211.954071,596.062744 
	C211.954086,596.062805 212.086990,595.966187 211.758057,596.053955 
	C209.294693,597.386841 207.160278,598.632019 205.025879,599.877197 
	C205.025879,599.877197 204.667236,600.075745 204.082520,600.095581 
	C201.338943,601.374634 199.180099,602.633850 197.021271,603.893127 
M249.255081,530.497009 
	C250.494980,525.577820 252.716095,520.676392 252.805420,515.736389 
	C253.198547,493.989532 253.016876,472.231354 252.903671,450.478027 
	C252.894257,448.666504 251.842590,446.860443 250.833847,444.410187 
	C249.754288,443.998505 248.688156,443.546539 247.593109,443.181274 
	C234.563690,438.834625 221.312241,435.046600 208.576477,429.965424 
	C200.543976,426.760681 193.281021,421.627106 185.696320,417.371918 
	C167.323486,430.944183 146.172012,438.444916 123.859314,442.888916 
	C119.693619,443.718628 118.898605,445.218689 118.922462,448.945526 
	C119.059929,470.425201 118.867950,491.907257 119.053604,513.386230 
	C119.157707,525.430786 122.534203,536.630981 129.157684,546.776733 
	C140.178497,563.658203 156.482803,573.844849 173.791367,583.184021 
	C181.872314,587.544250 188.237762,587.385010 196.238998,583.174866 
	C219.226334,571.079285 239.770782,556.898132 249.255081,530.497009 
z"/>
<path fill="#D9241D" opacity="1.000000" stroke="none" 
	d="
M715.923096,503.975006 
	C715.957642,508.355682 715.992188,512.736328 715.853760,517.764404 
	C715.746704,518.930786 715.812622,519.449829 715.878540,519.968872 
	C715.926086,524.345825 715.973572,528.722717 715.714355,533.679932 
	C715.563538,535.166260 715.719482,536.072266 715.875488,536.978333 
	C715.922852,543.348572 715.970215,549.718872 715.486938,556.542542 
	C710.131958,556.998230 705.307434,557.028748 700.483337,556.995605 
	C694.324463,556.953308 693.971741,556.633484 693.965210,550.472717 
	C693.940918,527.681824 693.900330,504.890808 693.977661,482.100189 
	C694.023499,468.603790 692.348022,470.144714 706.381714,469.907257 
	C710.735657,469.833618 713.492126,470.679688 713.211121,475.870361 
	C713.156982,476.870087 715.068909,477.976257 716.073853,479.033325 
	C727.638672,463.194977 755.047913,459.645630 768.813110,479.397156 
	C774.426758,473.356384 780.718506,468.247345 788.974365,466.641266 
	C797.273926,465.026733 805.487854,465.505768 813.381775,468.940704 
	C824.452332,473.757874 828.331055,483.257263 829.896851,494.763000 
	C829.807739,495.511322 829.821533,495.739807 829.871399,495.968140 
	C829.924377,497.380646 829.977417,498.793152 829.792419,500.928955 
	C829.665405,503.424408 829.776367,505.196564 829.887329,506.968719 
	C829.935242,509.034912 829.983093,511.101105 829.856689,513.789368 
	C829.749573,514.930481 829.816772,515.449524 829.884033,515.968567 
	C829.930664,529.341064 829.977295,542.713501 829.491821,556.545288 
	C823.793884,557.004089 818.627808,557.030151 813.462219,556.996155 
	C807.327820,556.955872 807.018860,556.661865 807.009216,550.417358 
	C806.985718,535.253052 807.088013,520.087830 806.920593,504.925385 
	C806.895142,502.615356 805.701599,500.318207 805.048279,498.015137 
	C804.696167,497.269104 804.344116,496.523071 803.866150,495.181396 
	C803.467102,494.044067 803.193909,493.502350 802.920715,492.960632 
	C802.920715,492.960632 803.033752,492.975159 802.833130,492.855652 
	C802.394043,492.483215 802.155579,492.230255 801.917114,491.977325 
	C801.917114,491.977325 802.022400,491.977661 801.828979,491.854980 
	C801.396851,491.480194 801.158203,491.228058 800.919556,490.975891 
	C800.919556,490.975891 801.054382,491.110657 800.850891,490.862976 
	C799.690491,490.114685 798.733643,489.614105 797.776733,489.113556 
	C797.776733,489.113556 797.887756,488.955109 797.648682,488.853760 
	C796.745239,488.510498 796.080750,488.268555 795.416321,488.026611 
	C792.635437,488.029480 789.813477,487.727356 787.081726,488.095215 
	C780.230347,489.017822 775.147644,492.376953 772.658630,499.939453 
	C771.826477,502.563232 771.084839,504.609924 771.070923,506.661560 
	C770.971191,521.436401 771.092468,536.213074 770.928650,550.986755 
	C770.907776,552.877258 769.724976,556.348083 768.946777,556.386597 
	C762.324463,556.714294 755.472107,558.882080 749.129822,555.035706 
	C749.071533,537.000427 749.013306,518.965149 749.116577,500.229553 
	C748.900696,498.695312 748.523254,497.861389 748.145813,497.027466 
	C740.524597,484.501282 724.753906,484.725372 717.278748,497.793701 
	C716.547852,498.790405 716.291199,499.452698 716.034546,500.114960 
	C716.034546,500.114960 715.992920,500.598694 715.794800,501.062561 
	C715.705444,502.342621 715.814270,503.158813 715.923096,503.975006 
z"/>
<path fill="#DA241D" opacity="1.000000" stroke="none" 
	d="
M465.971924,468.904602 
	C499.893311,481.562622 501.387360,519.751526 489.417114,539.686523 
	C482.778290,550.742737 472.671051,557.033386 460.204224,559.417847 
	C443.175232,562.674866 427.363617,559.959778 414.451630,547.646973 
	C399.975006,533.842224 397.249634,516.415161 402.487427,498.090179 
	C407.494812,480.571442 420.559784,470.755890 438.128296,467.008484 
	C447.384338,465.034149 456.607941,465.579895 465.971924,468.904602 
M462.419403,493.050659 
	C450.833862,483.270508 435.543030,486.046082 428.955688,499.412079 
	C424.159546,509.143677 424.570404,519.172668 429.804871,528.550598 
	C436.943420,541.340027 454.154144,542.894958 464.178955,532.289917 
	C472.259277,523.742004 473.174561,503.123688 462.419403,493.050659 
z"/>
<path fill="#DA241D" opacity="1.000000" stroke="none" 
	d="
M648.050781,486.884094 
	C640.175720,484.114441 632.589905,483.707153 625.162231,489.911835 
	C623.706116,491.768646 622.864258,493.324402 622.022461,494.880188 
	C615.644836,494.925354 609.267273,494.970520 602.293701,494.793884 
	C601.517700,494.382751 601.328857,494.202637 601.131226,494.031708 
	C601.083679,492.941711 601.036194,491.851685 601.371216,490.160675 
	C602.445557,487.481201 603.137451,485.402740 603.829346,483.324280 
	C604.578674,476.882080 609.320923,473.228119 614.312927,470.923248 
	C632.568176,462.494659 650.731812,462.939667 667.695435,474.311920 
	C671.467468,476.840637 673.713623,481.645477 676.586060,486.005219 
	C676.955750,487.730225 677.401672,488.852356 677.847534,489.974487 
	C677.931946,490.421509 678.016357,490.868561 677.891113,491.958313 
	C678.082764,495.057159 678.484192,497.513245 678.885620,499.969360 
	C678.933716,503.687378 678.981750,507.405426 678.856689,511.767212 
	C678.751404,512.930664 678.819214,513.450378 678.886963,513.970093 
	C678.934570,519.016235 678.982178,524.062317 678.939331,529.690308 
	C678.813171,530.505127 678.825256,530.738281 678.885132,530.971619 
	C678.934875,532.707764 678.984619,534.443970 678.784912,536.976685 
	C678.354187,542.532410 678.023621,547.292053 678.040527,552.050415 
	C678.053345,555.642517 676.560303,557.112793 672.997375,557.029724 
	C667.725708,556.906799 662.448608,557.017456 657.173828,557.028687 
	C657.173828,553.107117 657.173828,549.185669 657.173828,543.727600 
	C651.426697,551.717041 645.716675,557.558899 637.369446,559.248352 
	C627.298828,561.286560 617.187622,561.563965 608.068481,555.593323 
	C592.442932,545.362671 594.155762,520.324219 607.166504,511.836456 
	C608.131897,511.364655 608.550476,511.115631 608.969116,510.866638 
	C610.085388,510.235870 611.201599,509.605133 612.947632,509.092346 
	C618.708374,507.858063 623.839294,506.505798 628.970276,505.153503 
	C631.035034,505.082581 633.099731,505.011658 635.969299,505.195862 
	C642.012268,505.614746 647.253418,505.918396 652.485779,505.807739 
	C653.382629,505.788788 654.242065,504.002533 655.118652,503.032715 
	C655.066895,502.574097 655.015076,502.115479 655.178467,501.020142 
	C654.962524,498.597992 654.531433,496.812561 654.100342,495.027161 
	C652.798767,492.946716 651.497314,490.866272 649.997864,488.255493 
	C649.216858,487.444794 648.633789,487.164429 648.050781,486.884094 
M642.591187,519.053284 
	C637.454041,520.077271 632.141541,520.591064 627.232239,522.278076 
	C622.880188,523.773621 621.266174,527.856323 621.860962,532.409485 
	C622.469727,537.070251 625.419312,539.731384 629.914978,540.761780 
	C642.901611,543.738220 655.312622,532.962097 654.420593,519.056396 
	C650.819031,519.056396 647.185974,519.056396 642.591187,519.053284 
z"/>
<path fill="#DA241D" opacity="1.000000" stroke="none" 
	d="
M899.124817,556.037720 
	C899.124817,552.546997 899.124817,549.056335 899.124817,544.576416 
	C897.431213,546.403259 896.260315,547.454285 895.340210,548.691895 
	C886.028381,561.215393 868.620178,562.786621 856.376038,558.495605 
	C845.437805,554.662231 839.682190,544.938477 840.097473,532.539124 
	C840.532959,519.537476 847.341675,510.699463 860.003052,507.073547 
	C863.323120,506.122742 866.823303,505.800690 870.770203,505.203613 
	C871.524658,505.224213 871.747070,505.194550 871.966797,505.128357 
	C874.691406,505.057617 877.415955,504.986908 880.954956,505.176758 
	C886.848145,505.280457 891.927063,505.123505 897.005981,504.966614 
	C896.353516,500.409119 895.700989,495.851654 894.872925,490.620453 
	C894.043945,489.324829 893.390625,488.702942 892.737305,488.081055 
	C892.260132,487.867798 891.783020,487.654541 891.010132,486.921570 
	C888.821960,485.907532 886.929565,485.413300 885.037109,484.919067 
	C884.264954,484.952454 883.492798,484.985870 882.222534,484.937592 
	C881.493042,484.825531 881.261292,484.836487 881.029175,484.888733 
	C880.575684,484.939117 880.122131,484.989563 879.202515,484.984192 
	C878.487854,484.901398 878.241821,484.927155 877.998413,485.005676 
	C877.593750,485.031158 877.189026,485.056671 876.299561,485.209290 
	C875.547302,485.496063 875.288635,485.669006 875.038757,485.855164 
	C874.620178,485.917206 874.201660,485.979248 873.097290,486.070587 
	C867.605164,487.067444 866.356689,491.022491 865.019592,494.903107 
	C858.982788,494.942932 852.945984,494.982758 846.455322,494.539124 
	C845.711548,491.716064 845.421509,489.376526 845.131470,487.036987 
	C847.774231,477.111572 854.644104,471.072845 863.973389,468.130371 
	C877.574463,463.840576 891.274353,464.274841 904.329529,470.305908 
	C916.445496,475.903107 921.852417,486.017731 921.756592,499.966644 
	C921.360901,502.911621 921.029419,505.049988 921.023071,507.189331 
	C920.979248,521.973877 921.107971,536.760376 920.869263,551.541138 
	C920.840271,553.335266 919.003052,556.591187 917.911499,556.630920 
	C911.664734,556.858215 905.390015,556.317627 899.124817,556.037720 
M894.858154,519.059509 
	C887.458435,519.674622 879.966675,519.775208 872.690125,521.078308 
	C867.493713,522.008850 864.168518,527.100952 864.245300,531.553345 
	C864.317200,535.721802 867.580322,539.572754 872.050171,540.764343 
	C884.220886,544.008728 897.788635,533.402405 897.422852,520.839905 
	C897.405273,520.235718 896.309631,519.662842 894.858154,519.059509 
z"/>
<path fill="#DA241D" opacity="1.000000" stroke="none" 
	d="
M512.975525,482.057617 
	C529.901428,462.578949 562.234436,460.011261 579.526184,476.779083 
	C585.638489,482.706207 588.792053,489.897522 589.061401,498.999298 
	C581.776917,498.999298 574.823486,499.046173 567.872742,498.931244 
	C567.126160,498.918884 566.115479,498.129730 565.699646,497.423004 
	C561.077820,489.566986 554.252380,485.661713 545.271240,487.337921 
	C536.201477,489.030701 530.900879,495.376038 528.753784,504.087555 
	C526.149597,514.653381 526.494629,524.875366 534.604309,533.337646 
	C543.501648,542.621765 559.701233,541.191833 565.043457,529.682312 
	C565.565674,528.557251 567.017822,527.137939 568.077087,527.105042 
	C575.356140,526.879211 582.645447,526.986328 590.332947,526.986328 
	C589.459412,541.468567 581.952393,551.213562 569.998169,556.620422 
	C553.827209,563.934448 526.940979,562.464600 513.177612,545.640442 
	C510.280701,542.099365 508.322113,537.790649 506.067139,533.171753 
	C506.260651,531.379517 506.632660,530.156860 506.327057,529.137329 
	C503.353424,519.218201 504.022125,509.154572 505.378540,499.155182 
	C505.903564,495.284637 507.716675,491.588776 508.942993,487.813354 
	C509.132874,487.307068 509.322754,486.800812 510.063843,486.037781 
	C511.401886,484.539856 512.188721,483.298737 512.975525,482.057617 
z"/>
<path fill="#D9241D" opacity="1.000000" stroke="none" 
	d="
M323.112549,557.018005 
	C323.066772,537.642761 323.020996,518.267517 323.062592,498.309204 
	C323.180328,497.494934 323.170380,497.263245 323.120178,497.031036 
	C323.072174,475.657867 323.024170,454.284668 323.443390,432.533661 
	C329.531464,432.325836 335.238495,433.176117 340.749512,432.478302 
	C346.490326,431.751434 347.072723,434.178406 347.054138,438.798492 
	C346.933563,468.749329 346.972229,498.700958 347.036011,528.652161 
	C347.041229,531.096130 347.622925,533.538940 347.936737,535.982300 
	C347.936737,535.982300 348.085083,536.361206 348.271057,536.894897 
	C350.297577,537.934143 352.131805,538.847900 353.979858,538.876831 
	C363.458649,539.025208 372.941193,538.911011 382.422119,538.954712 
	C395.122864,539.013367 393.992798,537.713135 393.972687,550.431702 
	C393.962891,556.626465 393.619598,556.970276 387.483978,556.980408 
	C366.026886,557.015808 344.569702,557.008911 323.112549,557.018005 
z"/>
<path fill="#F92B21" opacity="1.000000" stroke="none" 
	d="
M715.599915,479.066345 
	C715.068909,477.976257 713.156982,476.870087 713.211121,475.870361 
	C713.492126,470.679688 710.735657,469.833618 706.381714,469.907257 
	C692.348022,470.144714 694.023499,468.603790 693.977661,482.100189 
	C693.900330,504.890808 693.940918,527.681824 693.965210,550.472717 
	C693.971741,556.633484 694.324463,556.953308 700.483337,556.995605 
	C705.307434,557.028748 710.131958,556.998230 715.416992,557.007568 
	C713.912415,557.385498 711.953735,558.019653 709.980774,558.067871 
	C704.191589,558.209656 698.396667,558.118408 692.325806,558.118408 
	C692.325806,528.001404 692.325806,498.299316 692.325806,468.342346 
	C699.775452,468.342346 707.019714,468.342346 715.125977,468.342346 
	C715.125977,471.993927 715.125977,475.546661 715.599915,479.066345 
z"/>
<path fill="#F92B21" opacity="1.000000" stroke="none" 
	d="
M102.267006,429.684662 
	C102.034149,438.705475 101.161522,447.932892 101.058731,457.168854 
	C100.831123,477.619720 100.886719,498.075836 101.059578,518.527832 
	C101.106804,524.115723 101.980026,529.696655 102.313057,535.610901 
	C101.282799,530.092957 99.725304,524.252319 99.662399,518.395630 
	C99.373291,491.480804 99.433548,464.561066 99.589294,437.644379 
	C99.604271,435.056793 101.144386,432.477997 102.267006,429.684662 
z"/>
<path fill="#F92B21" opacity="1.000000" stroke="none" 
	d="
M323.274445,557.421143 
	C344.569702,557.008911 366.026886,557.015808 387.483978,556.980408 
	C393.619598,556.970276 393.962891,556.626465 393.972687,550.431702 
	C393.992798,537.713135 395.122864,539.013367 382.422119,538.954712 
	C372.941193,538.911011 363.458649,539.025208 353.979858,538.876831 
	C352.131805,538.847900 350.297577,537.934143 348.259705,537.098022 
	C361.679871,536.855591 375.297272,536.949646 388.914764,537.029419 
	C395.967255,537.070679 396.462067,537.750000 395.612335,544.796021 
	C395.101532,549.031433 394.994690,553.315613 394.689606,557.824219 
	C370.835266,557.824219 347.135803,557.824219 323.274445,557.421143 
z"/>
<path fill="#F92B21" opacity="1.000000" stroke="none" 
	d="
M347.989563,535.517273 
	C347.622925,533.538940 347.041229,531.096130 347.036011,528.652161 
	C346.972229,498.700958 346.933563,468.749329 347.054138,438.798492 
	C347.072723,434.178406 346.490326,431.751434 340.749512,432.478302 
	C335.238495,433.176117 329.531464,432.325836 323.516113,432.068787 
	C323.863373,431.391357 324.596313,430.301300 325.348267,430.288025 
	C332.649902,430.159027 339.954742,430.210449 348.042358,430.210449 
	C348.042358,465.337036 348.042358,500.194641 347.989563,535.517273 
z"/>
<path fill="#F92B21" opacity="1.000000" stroke="none" 
	d="
M749.085938,555.473511 
	C755.472107,558.882080 762.324463,556.714294 768.946777,556.386597 
	C769.724976,556.348083 770.907776,552.877258 770.928650,550.986755 
	C771.092468,536.213074 770.971191,521.436401 771.070923,506.661560 
	C771.084839,504.609924 771.826477,502.563232 772.514038,500.273712 
	C772.796753,519.174561 772.796753,538.315918 772.796753,558.061890 
	C765.232788,558.061890 757.821228,558.100891 750.412659,557.969727 
	C749.943787,557.961365 749.498413,556.628113 749.085938,555.473511 
z"/>
<path fill="#F92B21" opacity="1.000000" stroke="none" 
	d="
M508.659058,488.018433 
	C507.716675,491.588776 505.903564,495.284637 505.378540,499.155182 
	C504.022125,509.154572 503.353424,519.218201 506.327057,529.137329 
	C506.632660,530.156860 506.260651,531.379517 506.009155,532.811646 
	C500.900970,517.822571 500.656311,502.795990 508.659058,488.018433 
z"/>
<path fill="#F92B21" opacity="1.000000" stroke="none" 
	d="
M269.904968,527.485107 
	C269.515503,526.139893 269.042053,524.347473 269.040070,522.554565 
	C269.006714,492.638977 269.032379,462.723328 269.061737,432.327667 
	C269.439636,433.063599 270.115112,434.279327 270.115845,435.495483 
	C270.133850,466.009552 270.080811,496.523621 269.904968,527.485107 
z"/>
<path fill="#F92B21" opacity="1.000000" stroke="none" 
	d="
M805.046631,498.436340 
	C805.701599,500.318207 806.895142,502.615356 806.920593,504.925385 
	C807.088013,520.087830 806.985718,535.253052 807.009216,550.417358 
	C807.018860,556.661865 807.327820,556.955872 813.462219,556.996155 
	C818.627808,557.030151 823.793884,557.004089 829.420837,557.010254 
	C828.258484,557.389282 826.640991,558.050903 825.010376,558.084900 
	C818.879150,558.212830 812.743652,558.136230 805.900879,558.136230 
	C805.900879,556.113647 805.900513,554.361023 805.900940,552.608398 
	C805.904907,536.981506 805.944153,521.354370 805.874146,505.727814 
	C805.863892,503.436523 805.334351,501.147583 805.046631,498.436340 
z"/>
<path fill="#F92B21" opacity="1.000000" stroke="none" 
	d="
M899.092529,556.473206 
	C905.390015,556.317627 911.664734,556.858215 917.911499,556.630920 
	C919.003052,556.591187 920.840271,553.335266 920.869263,551.541138 
	C921.107971,536.760376 920.979248,521.973877 921.023071,507.189331 
	C921.029419,505.049988 921.360901,502.911621 921.719971,500.404388 
	C921.897949,519.235107 921.897949,538.434204 921.897949,558.067139 
	C914.559998,558.067139 907.470032,558.087952 900.380920,558.017517 
	C899.937073,558.013123 899.500244,557.294800 899.092529,556.473206 
z"/>
<path fill="#F92B21" opacity="1.000000" stroke="none" 
	d="
M657.320801,557.435059 
	C662.448608,557.017456 667.725708,556.906799 672.997375,557.029724 
	C676.560303,557.112793 678.053345,555.642517 678.040527,552.050415 
	C678.023621,547.292053 678.354187,542.532410 678.715759,537.406250 
	C678.896118,543.817078 678.896118,550.595032 678.896118,557.841431 
	C671.867554,557.841431 664.667603,557.841431 657.320801,557.435059 
z"/>
<path fill="#F92B21" opacity="1.000000" stroke="none" 
	d="
M654.970276,503.482361 
	C654.242065,504.002533 653.382629,505.788788 652.485779,505.807739 
	C647.253418,505.918396 642.012268,505.614746 636.406433,505.272583 
	C642.299805,504.706787 648.560791,504.319427 654.970276,503.482361 
z"/>
<path fill="#F92B21" opacity="1.000000" stroke="none" 
	d="
M628.554688,505.116516 
	C623.839294,506.505798 618.708374,507.858063 613.280884,509.088196 
	C618.035950,507.670502 623.087524,506.375031 628.554688,505.116516 
z"/>
<path fill="#F92B21" opacity="1.000000" stroke="none" 
	d="
M865.371155,494.912018 
	C866.356689,491.022491 867.605164,487.067444 872.778198,486.070801 
	C870.670837,489.001495 868.196777,491.961212 865.371155,494.912018 
z"/>
<path fill="#F92B21" opacity="1.000000" stroke="none" 
	d="
M896.540771,504.918823 
	C891.927063,505.123505 886.848145,505.280457 881.402466,505.259766 
	C886.048889,505.011810 891.062256,504.941437 896.540771,504.918823 
z"/>
<path fill="#F92B21" opacity="1.000000" stroke="none" 
	d="
M845.036987,487.406982 
	C845.421509,489.376526 845.711548,491.716064 845.990479,494.467651 
	C842.198608,493.013672 845.370667,490.132477 845.036987,487.406982 
z"/>
<path fill="#F92B21" opacity="1.000000" stroke="none" 
	d="
M205.365997,599.821106 
	C207.160278,598.632019 209.294693,597.386841 211.806473,596.120361 
	C210.024597,597.320984 207.865356,598.543030 205.365997,599.821106 
z"/>
<path fill="#F92B21" opacity="1.000000" stroke="none" 
	d="
M197.362305,603.827515 
	C199.180099,602.633850 201.338943,601.374634 203.877548,600.096313 
	C202.072662,601.305420 199.888016,602.533630 197.362305,603.827515 
z"/>
<path fill="#F92B21" opacity="1.000000" stroke="none" 
	d="
M678.935303,499.553009 
	C678.484192,497.513245 678.082764,495.057159 677.847595,492.298462 
	C678.337524,494.376129 678.661255,496.756378 678.935303,499.553009 
z"/>
<path fill="#F92B21" opacity="1.000000" stroke="none" 
	d="
M885.372620,485.018188 
	C886.929565,485.413300 888.821960,485.907532 890.857056,486.701355 
	C889.235840,486.373047 887.471985,485.745148 885.372620,485.018188 
z"/>
<path fill="#F92B21" opacity="1.000000" stroke="none" 
	d="
M603.452393,483.416382 
	C603.137451,485.402740 602.445557,487.481201 601.473633,489.762878 
	C601.820862,487.813568 602.448181,485.661041 603.452393,483.416382 
z"/>
<path fill="#F92B21" opacity="1.000000" stroke="none" 
	d="
M654.112427,495.422272 
	C654.531433,496.812561 654.962524,498.597992 655.227966,500.675873 
	C654.749695,499.251343 654.437134,497.534363 654.112427,495.422272 
z"/>
<path fill="#F92B21" opacity="1.000000" stroke="none" 
	d="
M622.354248,494.837921 
	C622.864258,493.324402 623.706116,491.768646 624.865295,490.066528 
	C624.350403,491.545349 623.518188,493.170502 622.354248,494.837921 
z"/>
<path fill="#F92B21" opacity="1.000000" stroke="none" 
	d="
M177.366272,605.933472 
	C178.608856,606.300110 180.159042,606.801453 181.841431,607.580444 
	C180.540390,607.261475 179.107147,606.664795 177.366272,605.933472 
z"/>
<path fill="#F92B21" opacity="1.000000" stroke="none" 
	d="
M512.730164,482.247711 
	C512.188721,483.298737 511.401886,484.539856 510.296295,485.886292 
	C510.813263,484.806976 511.649017,483.622406 512.730164,482.247711 
z"/>
<path fill="#F92B21" opacity="1.000000" stroke="none" 
	d="
M106.641769,427.246216 
	C105.719398,428.028656 104.472122,428.826660 102.866348,429.622559 
	C103.777519,428.834259 105.047188,428.048004 106.641769,427.246216 
z"/>
<path fill="#F92B21" opacity="1.000000" stroke="none" 
	d="
M715.924194,536.610352 
	C715.719482,536.072266 715.563538,535.166260 715.640503,534.141174 
	C715.906616,534.762268 715.939758,535.502319 715.924194,536.610352 
z"/>
<path fill="#F92B21" opacity="1.000000" stroke="none" 
	d="
M829.936157,506.547546 
	C829.776367,505.196564 829.665405,503.424408 829.720032,501.347961 
	C829.918762,502.737915 829.951843,504.432159 829.936157,506.547546 
z"/>
<path fill="#F92B21" opacity="1.000000" stroke="none" 
	d="
M186.377594,607.959473 
	C187.186935,607.533203 188.345535,607.152710 189.747131,606.889587 
	C188.902390,607.339722 187.814621,607.672485 186.377594,607.959473 
z"/>
<path fill="#F92B21" opacity="1.000000" stroke="none" 
	d="
M748.144043,497.342621 
	C748.523254,497.861389 748.900696,498.695312 749.143677,499.761139 
	C748.720276,499.214600 748.431335,498.436188 748.144043,497.342621 
z"/>
<path fill="#F92B21" opacity="1.000000" stroke="none" 
	d="
M677.841675,489.635406 
	C677.401672,488.852356 676.955750,487.730225 676.648254,486.343689 
	C677.136353,487.151642 677.486084,488.223969 677.841675,489.635406 
z"/>
<path fill="#F92B21" opacity="1.000000" stroke="none" 
	d="
M193.338867,605.830688 
	C193.900314,605.308167 194.778183,604.732666 195.991333,604.120422 
	C195.436172,604.648376 194.545746,605.213074 193.338867,605.830688 
z"/>
<path fill="#F92B21" opacity="1.000000" stroke="none" 
	d="
M797.959778,489.377502 
	C798.733643,489.614105 799.690491,490.114685 800.783569,490.930450 
	C799.994141,490.710907 799.068481,490.176178 797.959778,489.377502 
z"/>
<path fill="#F92B21" opacity="1.000000" stroke="none" 
	d="
M892.903198,488.375916 
	C893.390625,488.702942 894.043945,489.324829 894.842163,490.271210 
	C894.347656,489.954041 893.708313,489.312378 892.903198,488.375916 
z"/>
<path fill="#F92B21" opacity="1.000000" stroke="none" 
	d="
M648.270935,487.071350 
	C648.633789,487.164429 649.216858,487.444794 649.872925,487.947327 
	C649.461060,487.865845 648.976074,487.562195 648.270935,487.071350 
z"/>
<path fill="#F92B21" opacity="1.000000" stroke="none" 
	d="
M715.990723,503.613159 
	C715.814270,503.158813 715.705444,502.342621 715.721313,501.293915 
	C715.916809,501.791351 715.987610,502.521332 715.990723,503.613159 
z"/>
<path fill="#F92B21" opacity="1.000000" stroke="none" 
	d="
M716.355774,499.904602 
	C716.291199,499.452698 716.547852,498.790405 716.954895,497.805145 
	C716.962585,498.219513 716.819824,498.956879 716.355774,499.904602 
z"/>
<path fill="#F92B21" opacity="1.000000" stroke="none" 
	d="
M795.630432,488.338470 
	C796.080750,488.268555 796.745239,488.510498 797.728027,488.909180 
	C797.312439,488.927399 796.578491,488.788879 795.630432,488.338470 
z"/>
<path fill="#F92B21" opacity="1.000000" stroke="none" 
	d="
M212.279083,596.057007 
	C212.512207,595.800842 213.070328,595.538940 213.920105,595.168091 
	C213.675888,595.389954 213.139999,595.720581 212.279083,596.057007 
z"/>
<path fill="#F92B21" opacity="1.000000" stroke="none" 
	d="
M715.925903,519.648926 
	C715.812622,519.449829 715.746704,518.930786 715.780396,518.226929 
	C715.911072,518.471008 715.942200,518.900024 715.925903,519.648926 
z"/>
<path fill="#F92B21" opacity="1.000000" stroke="none" 
	d="
M829.930725,515.648682 
	C829.816772,515.449524 829.749573,514.930481 829.783325,514.227051 
	C829.915466,514.471375 829.946472,514.900085 829.930725,515.648682 
z"/>
<path fill="#F92B21" opacity="1.000000" stroke="none" 
	d="
M678.934265,513.649780 
	C678.819214,513.450378 678.751404,512.930664 678.784302,512.226196 
	C678.917236,512.470764 678.949402,512.900146 678.934265,513.649780 
z"/>
<path fill="#F92B21" opacity="1.000000" stroke="none" 
	d="
M608.725952,510.935120 
	C608.550476,511.115631 608.131897,511.364655 607.509644,511.728302 
	C607.698303,511.563171 608.090576,511.283386 608.725952,510.935120 
z"/>
<path fill="#F92B21" opacity="1.000000" stroke="none" 
	d="
M802.916260,493.284607 
	C803.193909,493.502350 803.467102,494.044067 803.847778,494.869507 
	C803.607544,494.638367 803.259644,494.123444 802.916260,493.284607 
z"/>
<path fill="#F92B21" opacity="1.000000" stroke="none" 
	d="
M875.295776,485.847260 
	C875.288635,485.669006 875.547302,485.496063 875.994324,485.186768 
	C875.966797,485.304565 875.759766,485.571960 875.295776,485.847260 
z"/>
<path fill="#F92B21" opacity="1.000000" stroke="none" 
	d="
M881.261780,484.931519 
	C881.261292,484.836487 881.493042,484.825531 881.841431,484.869141 
	C881.958313,484.882355 881.494385,484.974274 881.261780,484.931519 
z"/>
<path fill="#F92B21" opacity="1.000000" stroke="none" 
	d="
M878.248779,485.067688 
	C878.241821,484.927155 878.487854,484.901398 878.861084,484.943787 
	C878.823547,485.016052 878.661316,485.072906 878.248779,485.067688 
z"/>
<path fill="#F92B21" opacity="1.000000" stroke="none" 
	d="
M268.991425,431.706970 
	C268.829803,431.675232 268.604523,431.305603 268.177338,430.681610 
	C268.292877,430.741211 268.610321,431.055145 268.991425,431.706970 
z"/>
<path fill="#F92B21" opacity="1.000000" stroke="none" 
	d="
M678.924438,530.737915 
	C678.825256,530.738281 678.813171,530.505127 678.866455,530.154663 
	C678.884033,530.037231 678.963745,530.504272 678.924438,530.737915 
z"/>
<path fill="#F92B21" opacity="1.000000" stroke="none" 
	d="
M800.975098,491.265228 
	C801.158203,491.228058 801.396851,491.480194 801.828918,491.907654 
	C801.691772,491.906799 801.361267,491.730682 800.975098,491.265228 
z"/>
<path fill="#F92B21" opacity="1.000000" stroke="none" 
	d="
M801.967285,492.272766 
	C802.155579,492.230255 802.394043,492.483215 802.825928,492.912170 
	C802.685425,492.914886 802.351501,492.741577 801.967285,492.272766 
z"/>
<path fill="#F92B21" opacity="1.000000" stroke="none" 
	d="
M871.738037,505.097534 
	C871.747070,505.194550 871.524658,505.224213 871.185974,505.216675 
	C871.072327,505.216003 871.509216,505.066711 871.738037,505.097534 
z"/>
<path fill="#F92B21" opacity="1.000000" stroke="none" 
	d="
M601.127747,494.276184 
	C601.328857,494.202637 601.517700,494.382751 601.828003,494.718262 
	C601.958191,494.864502 601.469238,494.867218 601.469238,494.867218 
	C601.469238,494.867218 601.124329,494.520630 601.127747,494.276184 
z"/>
<path fill="#F92B21" opacity="1.000000" stroke="none" 
	d="
M829.907471,495.737640 
	C829.821533,495.739807 829.807739,495.511322 829.837524,495.166840 
	C829.845032,495.051056 829.943542,495.507141 829.907471,495.737640 
z"/>
<path fill="#F92B21" opacity="1.000000" stroke="none" 
	d="
M323.082092,497.263489 
	C323.170380,497.263245 323.180328,497.494934 323.137024,497.843201 
	C323.124084,497.960236 323.044006,497.495972 323.082092,497.263489 
z"/>
<path fill="#060709" opacity="1.000000" stroke="none" 
	d="
M248.804626,530.925781 
	C239.770782,556.898132 219.226334,571.079285 196.238998,583.174866 
	C188.237762,587.385010 181.872314,587.544250 173.791367,583.184021 
	C156.482803,573.844849 140.178497,563.658203 129.157684,546.776733 
	C122.534203,536.630981 119.157707,525.430786 119.053604,513.386230 
	C118.867950,491.907257 119.059929,470.425201 118.922462,448.945526 
	C118.898605,445.218689 119.693619,443.718628 123.859314,442.888916 
	C146.172012,438.444916 167.323486,430.944183 185.696320,417.371918 
	C193.281021,421.627106 200.543976,426.760681 208.576477,429.965424 
	C221.312241,435.046600 234.563690,438.834625 247.593109,443.181274 
	C248.688156,443.546539 249.754288,443.998505 250.981598,445.190674 
	C251.135254,462.919312 251.427002,479.873840 251.046997,496.813293 
	C250.791672,508.195190 249.585419,519.555725 248.804626,530.925781 
z"/>
<path fill="#F92B21" opacity="1.000000" stroke="none" 
	d="
M249.029846,530.711426 
	C249.585419,519.555725 250.791672,508.195190 251.046997,496.813293 
	C251.427002,479.873840 251.135254,462.919312 251.202271,445.511536 
	C251.842590,446.860443 252.894257,448.666504 252.903671,450.478027 
	C253.016876,472.231354 253.198547,493.989532 252.805420,515.736389 
	C252.716095,520.676392 250.494980,525.577820 249.029846,530.711426 
z"/>
<path fill="#060709" opacity="1.000000" stroke="none" 
	d="
M462.686523,493.294128 
	C473.174561,503.123688 472.259277,523.742004 464.178955,532.289917 
	C454.154144,542.894958 436.943420,541.340027 429.804871,528.550598 
	C424.570404,519.172668 424.159546,509.143677 428.955688,499.412079 
	C435.543030,486.046082 450.833862,483.270508 462.686523,493.294128 
z"/>
<path fill="#060709" opacity="1.000000" stroke="none" 
	d="
M643.072083,519.054810 
	C647.185974,519.056396 650.819031,519.056396 654.420593,519.056396 
	C655.312622,532.962097 642.901611,543.738220 629.914978,540.761780 
	C625.419312,539.731384 622.469727,537.070251 621.860962,532.409485 
	C621.266174,527.856323 622.880188,523.773621 627.232239,522.278076 
	C632.141541,520.591064 637.454041,520.077271 643.072083,519.054810 
z"/>
<path fill="#060709" opacity="1.000000" stroke="none" 
	d="
M895.287109,519.067444 
	C896.309631,519.662842 897.405273,520.235718 897.422852,520.839905 
	C897.788635,533.402405 884.220886,544.008728 872.050171,540.764343 
	C867.580322,539.572754 864.317200,535.721802 864.245300,531.553345 
	C864.168518,527.100952 867.493713,522.008850 872.690125,521.078308 
	C879.966675,519.775208 887.458435,519.674622 895.287109,519.067444 
z"/>
</svg>